
        <svg xmlns="http://www.w3.org/2000/svg" xmlns:xlink="http://www.w3.org/1999/xlink" version="1.1" width="3162.068219413288" 
        height="638.4315258283139" viewBox="0 0 3162.068219413288 638.4315258283139">
			<rect fill="#000000" width="3162.068219413288" height="638.4315258283139"/>
			<g transform="scale(8.103410970664395) translate(10, 10)">
				<defs id="SvgjsDefs13894"></defs><g id="SvgjsG13895" featureKey="HKaMnE-0" transform="matrix(0.6194731854806745,0,0,0.6194731854806745,10.21281986579601,-1.5815150259904434)" fill="#11bb44"><g xmlns="http://www.w3.org/2000/svg"><path d="M50.333,2.553c-15.686,0-29.611,7.656-38.255,19.422c-1.293,1.632-2.424,3.398-3.371,5.277   C4.998,34.01,2.885,41.763,2.885,50.001c0,26.163,21.285,47.448,47.448,47.448s47.448-21.285,47.448-47.448   S76.496,2.553,50.333,2.553z M44.928,61.67c-7.897,0-14.322-6.506-14.322-14.503s6.425-14.503,14.322-14.503   S59.25,39.17,59.25,47.167S52.825,61.67,44.928,61.67z M44.928,28.412c-10.242,0-18.574,8.413-18.574,18.755   s8.332,18.755,18.574,18.755c0.116,0,0.228-0.016,0.343-0.018c-2.924,1.144-6.097,1.777-9.415,1.777   c-14.448,0-26.203-11.895-26.203-26.515c0-4.277,1.013-8.317,2.798-11.899c0.911-1.658,1.931-3.248,3.045-4.766   c4.808-6.003,12.147-9.85,20.36-9.85c14.011,0,25.488,11.185,26.171,25.192C59.196,33.132,52.599,28.412,44.928,28.412z    M50.333,93.197c-23.313,0-42.36-18.568-43.158-41.69c4.214,11.893,15.478,20.427,28.681,20.427   c16.794,0,30.456-13.802,30.456-30.767S52.649,10.4,35.855,10.4c-1.047,0-2.082,0.054-3.103,0.158   c5.374-2.405,11.321-3.754,17.58-3.754c23.818,0,43.196,19.378,43.196,43.196S74.151,93.197,50.333,93.197z"></path></g></g><g id="SvgjsG13896" featureKey="J3GnXt-0" transform="matrix(3.7820061075875033,0,0,3.7820061075875033,75.59619233909,-19.69203303872293)" fill="#4351b0"><path d="M1.1 9.9 l0 -0.6 c0 -1.9 1.4 -3.3 3.5 -3.3 l5.5 0 l0 0.9 l-0.4 0.4 l-5.1 0 c-1.1 0 -2 0.9 -2 2 l0 0.6 c0 1.1 0.6 1.68 1.6 1.9 l3.7 0.8 c1.4 0.3 2.5 1.4 2.5 3.2 l0 0.9 c0 1.9 -1.4 3.3 -3.5 3.3 l-6 0 l0 -1.3 l6 0 c1.1 0 2 -0.9 2 -2 l0 -0.9 c0 -1.1 -0.6 -1.68 -1.6 -1.9 l-3.7 -0.8 c-1.4 -0.3 -2.5 -1.4 -2.5 -3.2 z  M19.9 11 l-4.2 0 c-0.9 0 -1.6 0.7 -1.6 1.6 l0 4.6 c0 0.9 0.7 1.6 1.6 1.6 l4.6 0 l0 1.2 l-4.6 0 c-1.9 0 -3 -1.2 -3 -2.8 l0 -4.6 c0 -1.6 1.2 -2.8 3 -2.8 l4.6 0 l0 0.8 z M29.9 20 l-0.9 0 l-0.2 -1.4 l-0.1 0 s-0.8 1.6 -2.5 1.6 l-1.6 0 c-1.9 0 -3 -1.2 -3 -2.8 l0 -0.6 c0 -1.6 1.2 -2.8 3 -2.8 l3.9 0 l0 -1.4 c0 -0.9 -0.7 -1.6 -1.6 -1.6 l-4.4 0 l0 -1.2 l4.4 0 c1.8 0 3 1.2 3 2.8 l0 7.4 z M24.599999999999998 19 l1.6 0 c1.5 0 2.3 -1.8 2.3 -1.8 l0 -2 l-3.9 0 c-0.9 0 -1.6 0.7 -1.6 1.6 l0 0.6 c0 0.9 0.7 1.6 1.6 1.6 z M41.6 20 l-1.4 0 l0 -7.6 c0 -0.9 -0.7 -1.6 -1.6 -1.6 l-1.8 0 c-1.5 0 -2.3 1.8 -2.3 1.8 l0 7.4 l-1.4 0 l0 -10.2 l0.9 0 l0.2 1.4 l0.1 0 s0.8 -1.6 2.5 -1.6 l1.8 0 c1.8 0 3 1.2 3 2.8 l0 7.6 z M53.400000000000006 20 l-6.8 -11.5 l-0.1 0 l0.2 2.6 l0 8.9 l-1.5 0 l0 -14 l1.6 0 l6.8 11.5 l0.1 0 l-0.2 -2.6 l0 -8.9 l1.5 0 l0 14 l-1.6 0 z M66.2 20 l-4.8 0 c-1.9 0 -3 -1.2 -3 -2.8 l0 -4.8 c0 -1.6 1.2 -2.8 3 -2.8 l2.2 0 c1.8 0 3 1.2 3 2.8 l0 3.1 l-6.8 0 l0 1.7 c0 0.9 0.7 1.6 1.6 1.6 l4.8 0 l0 1.2 z M59.8 12.4 l0 1.9 l5.4 0 l0 -1.9 c0 -0.9 -0.7 -1.6 -1.6 -1.6 l-2.2 0 c-0.9 0 -1.6 0.7 -1.6 1.6 z M70.8 12.4 l0 5 c0 0.9 0.7 1.6 1.6 1.6 l2.5 0 c0.9 0 1.6 -0.7 1.6 -1.6 l0 -5 c0 -0.9 -0.7 -1.6 -1.6 -1.6 l-2.5 0 c-0.9 0 -1.6 0.7 -1.6 1.6 z M69.4 17.4 l0 -5 c0 -1.6 1.2 -2.8 3 -2.8 l2.5 0 c1.8 0 3 1.2 3 2.8 l0 5 c0 1.6 -1.2 2.8 -3 2.8 l-2.5 0 c-1.9 0 -3 -1.2 -3 -2.8 z"></path></g>
			</g>
		</svg>
	